<?xml version="1.0" standalone="no"?>
<!DOCTYPE svg PUBLIC "-//W3C//DTD SVG 20010904//EN"
 "http://www.w3.org/TR/2001/REC-SVG-20010904/DTD/svg10.dtd">
<svg version="1.0" xmlns="http://www.w3.org/2000/svg"
 width="2400.000000pt" height="2400.000000pt" viewBox="0 0 2400.000000 2400.000000"
 preserveAspectRatio="xMidYMid meet">
<metadata>
Created by potrace 1.14, written by Peter Selinger 2001-2017
</metadata>
<g transform="translate(0.000000,2400.000000) scale(0.100000,-0.100000)"
fill="#000000" stroke="none">
<path d="M13530 17466 c-30 -18 -221 -131 -425 -251 -203 -119 -377 -221 -385
-226 -59 -35 -444 -261 -480 -281 -49 -28 -246 -142 -270 -157 -8 -6 -55 -34
-105 -63 -49 -29 -97 -57 -106 -63 -9 -5 -32 -18 -50 -29 -19 -10 -67 -39
-108 -63 -41 -25 -88 -53 -105 -63 -278 -159 -297 -172 -283 -194 8 -11 35
-59 61 -106 26 -47 55 -98 65 -115 10 -16 29 -50 43 -75 14 -25 112 -196 218
-380 106 -184 204 -355 218 -380 14 -25 94 -164 177 -310 84 -146 163 -283
175 -305 12 -22 46 -80 75 -130 29 -49 64 -110 78 -135 13 -25 155 -272 314
-550 160 -278 379 -660 488 -850 109 -190 284 -496 390 -680 106 -184 201
-351 212 -370 11 -19 152 -264 313 -545 161 -280 305 -532 321 -560 15 -27 58
-104 96 -169 l68 -119 1610 0 c1318 0 1609 3 1607 14 -2 7 -12 25 -22 39 -11
15 -24 38 -30 51 -6 13 -19 38 -29 54 -10 17 -69 118 -131 225 -62 107 -145
251 -185 320 -72 123 -105 180 -132 230 -8 14 -26 46 -41 71 -15 25 -114 196
-220 380 -107 184 -198 341 -203 349 -34 58 -99 172 -99 176 0 2 -11 21 -24
42 -13 20 -58 98 -101 172 -43 74 -94 164 -115 200 -33 57 -273 472 -320 555
-137 240 -250 435 -320 555 -5 8 -54 94 -110 190 -56 96 -105 182 -110 190
-21 34 -100 172 -100 175 0 1 -25 44 -55 94 -30 51 -55 93 -55 95 0 3 -146
257 -170 296 -5 8 -32 56 -61 105 -28 50 -118 205 -199 345 -216 372 -479 828
-508 880 -13 25 -28 50 -32 55 -4 6 -18 30 -32 55 -14 25 -59 104 -100 175
-42 72 -86 149 -99 172 -155 272 -545 943 -549 943 -3 0 -30 -16 -60 -34z"/>
<path d="M10614 14823 c-131 -74 -329 -186 -439 -248 -263 -148 -275 -155
-310 -176 -16 -11 -37 -22 -45 -26 -8 -3 -123 -68 -255 -143 -132 -75 -265
-150 -295 -167 -30 -17 -118 -66 -195 -110 -118 -67 -251 -142 -505 -285 -114
-65 -140 -80 -140 -83 0 -2 17 -32 38 -66 21 -35 56 -95 77 -134 21 -38 49
-87 62 -107 12 -21 23 -39 23 -41 0 -2 23 -44 51 -93 29 -49 63 -109 77 -134
14 -25 96 -169 182 -320 86 -151 168 -295 182 -320 25 -44 304 -535 503 -885
57 -99 112 -196 123 -215 11 -19 36 -64 57 -100 20 -36 51 -90 68 -120 16 -30
119 -211 229 -402 l198 -348 0 -345 0 -345 348 0 347 0 0 340 c0 334 0 341 20
345 11 2 577 3 1258 3 680 -1 1240 1 1242 4 3 3 -27 61 -66 129 -39 68 -81
142 -94 164 -12 22 -83 146 -157 275 -74 129 -146 255 -160 280 -14 25 -112
196 -218 380 -106 184 -204 355 -218 380 -73 130 -227 398 -240 420 -9 14 -15
28 -14 33 1 4 -2 7 -8 7 -5 0 -10 4 -10 8 0 7 -49 95 -161 290 -11 17 -27 47
-37 65 -37 65 -93 162 -102 177 -16 25 -180 313 -180 316 0 1 -27 48 -60 104
-33 56 -60 103 -60 105 0 3 -25 45 -55 96 -30 50 -55 93 -55 95 0 1 -46 83
-103 181 -57 98 -106 185 -110 193 -4 8 -15 29 -26 45 -16 27 -262 456 -323
565 -58 104 -182 316 -193 332 -10 15 -35 3 -251 -119z"/>
<path d="M7890 12425 c-69 -41 -132 -78 -140 -82 -8 -4 -37 -20 -65 -36 -27
-16 -189 -111 -360 -210 -170 -99 -323 -188 -340 -198 -16 -11 -37 -22 -45
-26 -8 -4 -37 -20 -65 -37 -69 -40 -330 -193 -384 -224 -25 -13 -68 -38 -95
-55 -28 -16 -67 -39 -86 -49 -19 -11 -182 -106 -362 -210 l-326 -190 28 -48
c15 -26 41 -72 58 -101 16 -30 62 -112 102 -184 40 -71 82 -148 94 -170 165
-298 169 -305 190 -306 11 0 737 -1 1612 -2 l1592 -2 -14 27 c-8 16 -28 52
-46 80 -17 29 -64 112 -105 183 -41 72 -93 158 -114 192 -21 34 -39 65 -39 68
0 3 -16 31 -35 61 -19 30 -35 56 -35 58 0 1 -52 92 -116 202 -64 109 -125 213
-134 229 -10 17 -57 98 -105 180 -48 83 -95 164 -105 180 -9 17 -97 167 -195
335 -98 168 -192 329 -208 358 -15 28 -29 52 -30 51 -1 0 -58 -33 -127 -74z"/>
<path d="M9299 10270 c-1 -3 -3 -259 -4 -570 -1 -311 -3 -570 -4 -577 0 -7
-19 0 -46 18 -132 89 -370 175 -551 199 -486 63 -938 -86 -1249 -411 -138
-144 -214 -260 -288 -437 -175 -415 -141 -914 87 -1297 83 -139 265 -346 355
-403 14 -9 28 -19 31 -22 5 -6 74 -52 115 -77 76 -46 325 -152 325 -138 0 2
12 0 27 -6 74 -28 195 -42 358 -43 230 -1 325 12 510 70 83 26 250 102 298
136 15 11 28 17 28 14 1 -3 3 -37 4 -76 1 -38 3 -74 4 -78 0 -5 156 -9 346 -9
l345 0 0 1856 0 1856 -345 0 c-190 0 -346 -2 -346 -5z m-649 -1558 c368 -88
643 -418 643 -772 0 -100 -4 -131 -30 -220 -67 -231 -273 -450 -498 -527 -108
-37 -129 -42 -215 -48 -322 -22 -634 161 -768 452 -129 280 -92 588 101 832
117 147 314 264 483 287 27 3 51 8 52 9 8 7 190 -3 232 -13z"/>
<path d="M13528 10275 c-1 0 -2 -261 -3 -580 -1 -319 -5 -579 -8 -577 -4 1
-37 22 -75 46 -98 64 -251 130 -353 152 -165 36 -429 48 -564 26 -112 -19
-126 -22 -205 -44 -237 -65 -448 -188 -624 -362 -108 -106 -131 -134 -201
-241 -76 -118 -157 -299 -182 -410 -2 -11 -6 -29 -8 -40 -3 -11 -7 -31 -10
-45 -21 -92 -28 -375 -12 -470 40 -235 124 -440 255 -624 57 -81 199 -230 260
-276 19 -14 39 -30 45 -36 62 -56 260 -163 384 -207 177 -64 289 -82 508 -82
132 0 183 4 285 19 141 22 345 101 458 178 27 19 42 24 43 16 0 -7 2 -44 2
-83 l2 -70 345 0 345 0 0 1853 c0 1229 -3 1852 -10 1853 -7 1 -666 5 -677 4z
m-642 -1563 c235 -49 448 -217 554 -437 62 -128 75 -189 74 -350 0 -131 -2
-146 -32 -234 -45 -131 -102 -222 -196 -316 -152 -150 -324 -224 -534 -230
-296 -8 -568 149 -719 414 -76 133 -99 227 -97 401 1 102 5 125 33 203 77 213
227 384 423 483 61 31 175 67 238 77 45 6 204 -1 256 -11z"/>
<path d="M19618 10264 c-117 -27 -195 -89 -245 -192 -23 -49 -27 -70 -27 -147
0 -79 4 -98 29 -150 85 -178 298 -250 476 -160 125 64 194 191 184 338 -15
211 -214 359 -417 311z m162 -66 c195 -61 260 -312 121 -470 -33 -38 -100 -76
-148 -84 -15 -2 -37 -6 -49 -9 -11 -2 -51 4 -87 14 -82 22 -145 71 -181 141
-120 229 97 485 344 408z"/>
<path d="M19535 9920 l0 -190 31 0 31 0 1 68 c0 37 0 73 1 80 1 15 42 16 73 1
23 -10 78 -86 78 -106 0 -20 37 -43 68 -43 18 0 32 2 32 5 0 13 -93 146 -108
155 -16 9 -16 9 0 10 30 0 78 52 84 90 7 47 -24 96 -68 108 -18 5 -76 10 -128
11 l-95 2 0 -191z m193 126 c41 -13 40 -79 -1 -92 -12 -4 -44 -8 -70 -9 -52
-3 -59 3 -61 54 -3 49 9 59 63 56 26 -1 58 -6 69 -9z"/>
<path d="M10300 7978 c0 -1104 3 -1388 13 -1389 15 0 611 0 655 1 l32 0 -2
1388 -3 1387 -347 0 -348 0 0 -1387z"/>
<path d="M5155 9349 c-396 -38 -759 -237 -1003 -553 -43 -56 -152 -230 -157
-251 -1 -5 -11 -30 -22 -55 -19 -44 -58 -153 -55 -157 1 -2 -5 -20 -12 -40
-12 -34 -25 -104 -41 -216 -14 -105 -5 -287 21 -417 9 -41 18 -85 20 -97 9
-46 67 -191 110 -277 89 -176 214 -331 369 -458 87 -71 84 -70 155 -114 144
-90 301 -152 480 -190 91 -19 358 -26 475 -12 211 25 401 87 549 178 l67 41
-1 -63 c-1 -35 -1 -72 -1 -84 1 -21 2 -21 349 -20 l347 1 0 1380 0 1380 -349
0 -349 0 1 -107 0 -107 -61 38 c-254 155 -584 229 -892 200z m323 -638 c306
-62 563 -329 618 -645 13 -76 13 -230 0 -273 -3 -10 -7 -29 -10 -43 -7 -40
-36 -121 -64 -175 -74 -147 -201 -274 -347 -347 -118 -59 -201 -79 -355 -83
-292 -7 -597 187 -725 462 -137 293 -85 608 141 851 126 137 304 238 454 258
18 3 36 6 38 8 7 8 198 -3 250 -13z"/>
<path d="M15788 9355 c-2 -1 -32 -5 -68 -9 -290 -29 -576 -152 -789 -341 -162
-143 -295 -333 -374 -531 -35 -88 -75 -229 -82 -288 -2 -17 -6 -49 -10 -71
-10 -59 -12 -243 -4 -322 9 -86 20 -156 24 -164 2 -3 7 -21 10 -40 3 -19 19
-73 35 -121 163 -488 571 -846 1075 -944 97 -19 372 -25 496 -12 149 17 372
91 523 173 l82 44 0 -82 -1 -82 330 0 330 0 0 1380 0 1380 -330 0 -330 0 0
-107 c0 -60 -1 -108 -3 -108 -2 0 -22 13 -45 28 -157 107 -370 180 -604 207
-52 6 -260 14 -265 10z m257 -640 c275 -49 531 -280 624 -563 134 -409 -136
-869 -579 -988 -96 -25 -281 -23 -384 5 -444 119 -694 579 -550 1011 93 278
349 498 624 536 25 3 46 8 48 9 6 5 176 -2 217 -10z"/>
<path d="M18709 9356 c-2 -2 -33 -6 -69 -10 -36 -3 -76 -8 -90 -11 -14 -2 -38
-7 -55 -11 -203 -40 -414 -147 -544 -275 -151 -150 -225 -317 -238 -535 -13
-218 54 -414 194 -572 50 -57 137 -123 198 -151 144 -65 448 -142 690 -176 23
-3 52 -8 65 -10 14 -3 41 -7 60 -10 19 -3 46 -7 60 -9 14 -3 41 -7 60 -10 66
-10 210 -56 248 -80 148 -95 154 -229 16 -355 -98 -90 -217 -132 -374 -131
-107 0 -122 2 -208 24 -195 50 -317 176 -346 357 l-10 67 -363 -1 -364 0 6
-60 c33 -319 237 -600 540 -747 246 -119 545 -164 905 -137 114 9 143 13 235
33 39 9 77 17 86 19 46 9 126 37 199 70 258 113 433 308 494 550 51 204 42
401 -26 555 -82 183 -277 344 -526 434 -66 23 -247 64 -357 81 -22 3 -69 10
-105 16 -36 6 -78 12 -93 14 -16 2 -40 6 -55 9 -15 3 -44 8 -64 10 -89 13
-258 59 -318 87 -135 63 -180 147 -136 254 50 120 174 173 417 180 180 5 313
-29 396 -99 44 -37 89 -136 98 -213 l7 -61 345 0 346 0 -6 57 c-31 291 -202
542 -470 689 -85 47 -207 96 -260 106 -12 2 -40 9 -62 14 -22 6 -58 13 -80 17
-23 3 -52 8 -65 11 -28 6 -375 15 -381 10z"/>
</g>
</svg>
